<?xml version="1.0" ?><!DOCTYPE svg  PUBLIC '-//W3C//DTD SVG 1.1//EN'  'http://www.w3.org/Graphics/SVG/1.1/DTD/svg11.dtd'><svg enable-background="new 0 0 48 48" height="48px" id="Layer_3" version="1.1" viewBox="0 0 48 48" width="48px" xml:space="preserve" xmlns="http://www.w3.org/2000/svg" xmlns:xlink="http://www.w3.org/1999/xlink" fill= "rgba(255, 255, 255, 0.74)"><g><rect height="5.375" width="5.375" x="6.719" y="21.5"/><rect height="5.375" width="5.375" x="14.93" y="21.5"/><rect height="5.375" width="5.375" x="22.918" y="21.5"/><rect height="5.375" width="5.375" x="30.906" y="21.5" fill= "#ffffff"/><rect height="5.375" width="5.375" x="6.719" y="29.562"/><rect height="5.375" width="5.375" x="14.93" y="29.562"/><rect height="5.375" width="5.375" x="22.918" y="29.562"/><rect height="5.375" width="5.375" x="30.906" y="29.562"/><circle cx="42" cy="42" r="6"/><path d="M3.583,39.417V17.828h35.833v15.553C40.235,33.136,41.102,33,42,33c0.338,0,0.671,0.022,1,0.059V17.828v-3.583V3.583   h-8.958V0h-3.584v3.583H12.542V0H8.958v3.583H0v10.661v3.583V43h33.059C33.022,42.671,33,42.338,33,42   c0-0.898,0.136-1.765,0.381-2.583H3.583z M3.583,7.167h5.375v3.583h3.583V7.167h17.917v3.583h3.584V7.167h5.375v7.078H3.583V7.167z   "/></g></svg>