<svg width="64" height="64" xmlns="http://www.w3.org/2000/svg">

 <g>
  <title>background</title>
  <rect fill="none" id="canvas_background" height="402" width="582" y="-1" x="-1"/>
 </g>
 <g>
  <title>Layer 1</title>
  <circle id="svg_2" r="13.083" opacity="0.2" fill="#1f1d1d0" cy="33.917" cx="32"/>
  <circle id="svg_3" r="13.083" fill="#4F5D73" cy="33.083" cx="32"/>
  <circle id="svg_4" r="13.083" fill="#4F5D73" cy="32" cx="32"/>
  <path opacity="0.2" id="svg_6" fill="#231F20" d="m32,12c-12.15,0 -22,9.85 -22,22s9.85,22 22,22c12.15,0 22,-9.85 22,-22s-9.85,-22 -22,-22zm-17.5,18.5c0,-3.038 2.462,-5.5 5.5,-5.5c3.037,0 5.5,2.462 5.5,5.5c0,3.037 -2.463,5.5 -5.5,5.5c-3.038,0 -5.5,-2.463 -5.5,-5.5zm9.969,19c-3.038,0 -5.5,-2.463 -5.5,-5.5c0,-3.038 2.462,-5.5 5.5,-5.5c3.038,0 5.5,2.462 5.5,5.5c0,3.037 -2.463,5.5 -5.5,5.5zm2.031,-28c0,-3.038 2.462,-5.5 5.5,-5.5c3.037,0 5.5,2.462 5.5,5.5c0,3.038 -2.463,5.5 -5.5,5.5c-3.038,0 -5.5,-2.462 -5.5,-5.5zm12.969,28c-3.038,0 -5.5,-2.463 -5.5,-5.5c0,-3.038 2.462,-5.5 5.5,-5.5c3.038,0 5.5,2.462 5.5,5.5c0,3.037 -2.463,5.5 -5.5,5.5zm4.573,-13.5c-3.038,0 -5.5,-2.463 -5.5,-5.5c0,-3.038 2.462,-5.5 5.5,-5.5c3.037,0 5.5,2.462 5.5,5.5c0,3.037 -2.463,5.5 -5.5,5.5z"/>
  <path id="svg_8" fill="#525252" d="m32,10c-12.15,0 -22,9.85 -22,22s9.85,22 22,22c12.15,0 22,-9.85 22,-22s-9.85,-22 -22,-22zm-17.5,18.5c0,-3.038 2.462,-5.5 5.5,-5.5c3.037,0 5.5,2.462 5.5,5.5c0,3.038 -2.463,5.5 -5.5,5.5c-3.038,0 -5.5,-2.462 -5.5,-5.5zm9.969,19c-3.038,0 -5.5,-2.463 -5.5,-5.5c0,-3.038 2.462,-5.5 5.5,-5.5c3.038,0 5.5,2.462 5.5,5.5c0,3.037 -2.463,5.5 -5.5,5.5zm2.031,-28c0,-3.038 2.462,-5.5 5.5,-5.5c3.037,0 5.5,2.462 5.5,5.5c0,3.038 -2.463,5.5 -5.5,5.5c-3.038,0 -5.5,-2.462 -5.5,-5.5zm12.969,28c-3.038,0 -5.5,-2.463 -5.5,-5.5c0,-3.038 2.462,-5.5 5.5,-5.5c3.038,0 5.5,2.462 5.5,5.5c0,3.037 -2.463,5.5 -5.5,5.5zm4.573,-13.5c-3.038,0 -5.5,-2.462 -5.5,-5.5c0,-3.038 2.462,-5.5 5.5,-5.5c3.037,0 5.5,2.462 5.5,5.5c0,3.038 -2.463,5.5 -5.5,5.5z"/>
 </g>
</svg>